<mxfile host="www.draw.io" modified="2023-08-10T13:19:25.725Z" agent="Mozilla/5.0 (Windows NT 10.0; Win64; x64) AppleWebKit/537.36 (KHTML, like Gecko) Chrome/115.0.0.0 Safari/537.36" etag="JdmDi0fDo_2mzOx7ta4t" version="21.6.7" type="device">
  <diagram name="Page-1" id="W8nlpf-HWn4SW8pZaSY5">
    <mxGraphModel dx="932" dy="446" grid="1" gridSize="10" guides="1" tooltips="1" connect="1" arrows="1" fold="1" page="1" pageScale="1" pageWidth="1169" pageHeight="827" math="0" shadow="0">
      <root>
        <mxCell id="0" />
        <mxCell id="1" parent="0" />
        <mxCell id="WV2E7zorjhjgLGvpvyms-1" value="INICIO" style="rounded=1;whiteSpace=wrap;html=1;" vertex="1" parent="1">
          <mxGeometry x="330" y="230" width="120" height="60" as="geometry" />
        </mxCell>
        <mxCell id="WV2E7zorjhjgLGvpvyms-2" value="FIN" style="rounded=1;whiteSpace=wrap;html=1;" vertex="1" parent="1">
          <mxGeometry x="340" y="480" width="120" height="60" as="geometry" />
        </mxCell>
        <mxCell id="WV2E7zorjhjgLGvpvyms-3" value="Hola Mundo....." style="shape=parallelogram;perimeter=parallelogramPerimeter;whiteSpace=wrap;html=1;fixedSize=1;" vertex="1" parent="1">
          <mxGeometry x="330" y="350" width="120" height="60" as="geometry" />
        </mxCell>
        <mxCell id="WV2E7zorjhjgLGvpvyms-4" value="" style="endArrow=classic;html=1;rounded=0;exitX=0.583;exitY=1.05;exitDx=0;exitDy=0;exitPerimeter=0;entryX=0.583;entryY=-0.033;entryDx=0;entryDy=0;entryPerimeter=0;" edge="1" parent="1" source="WV2E7zorjhjgLGvpvyms-1" target="WV2E7zorjhjgLGvpvyms-3">
          <mxGeometry width="50" height="50" relative="1" as="geometry">
            <mxPoint x="450" y="460" as="sourcePoint" />
            <mxPoint x="500" y="410" as="targetPoint" />
          </mxGeometry>
        </mxCell>
        <mxCell id="WV2E7zorjhjgLGvpvyms-5" value="" style="endArrow=classic;html=1;rounded=0;exitX=0.633;exitY=1.033;exitDx=0;exitDy=0;exitPerimeter=0;" edge="1" parent="1" source="WV2E7zorjhjgLGvpvyms-3">
          <mxGeometry width="50" height="50" relative="1" as="geometry">
            <mxPoint x="450" y="460" as="sourcePoint" />
            <mxPoint x="406" y="470" as="targetPoint" />
          </mxGeometry>
        </mxCell>
      </root>
    </mxGraphModel>
  </diagram>
</mxfile>
